<?xml version="1.0" encoding="UTF-8"?>
<!-- Generator: visioncortex VTracer 0.6.12 -->
<svg version="1.1" xmlns="http://www.w3.org/2000/svg" width="1747" height="223" viewBox="0 0 1747 223">
<path d="M0 0 C0.66 0 1.32 0 2 0 C2.14695312 0.76183594 2.29390625 1.52367188 2.4453125 2.30859375 C4.11363809 9.98864432 5.83775816 17.56862748 12.74316406 22.15869141 C17.03795566 24.69940638 21.48088872 26.8899315 26 29 C23.26612066 30.82258622 20.83076471 31.94017763 17.8125 33.1875 C8.51769468 37.39346072 3.20291578 43.38726371 -2 52 C-2.93549135 53.52206971 -3.87286896 55.04298238 -4.8125 56.5625 C-5.21082031 57.22378906 -5.60914063 57.88507813 -6.01953125 58.56640625 C-6.34308594 59.03949219 -6.66664062 59.51257813 -7 60 C-7.33 60 -7.66 60 -8 60 C-8.14695312 59.24976563 -8.29390625 58.49953125 -8.4453125 57.7265625 C-10.33602717 49.09881854 -13.02336856 40.68909337 -20.3125 35.125 C-24.30277098 32.61095035 -28.63898148 30.77011863 -33 29 C-30.16337656 27.51353142 -27.32669173 26.38518337 -24.3125 25.3125 C-12.20013043 20.4782553 -5.34257079 11.50707555 0 0 Z " fill="#005BAC" transform="translate(1538,19)"/>
<path d="M0 0 C42.59649901 -0.69474412 89.37664035 9.55628531 122.26953125 38.125 C123.29202861 39.44115992 124.29661383 40.77177811 125.26953125 42.125 C117.80304832 42.46677954 110.3360083 42.75636674 102.86515522 42.98246098 C99.39447761 43.08907158 95.92622976 43.21246637 92.45776367 43.37670898 C65.74166229 44.62090098 65.74166229 44.62090098 58.21875 38.796875 C56.55149712 37.25834783 54.89954259 35.70292936 53.26953125 34.125 C38.20934844 25.64744734 21.15700444 22.72657892 4.08203125 22.8125 C3.49039185 22.81531982 3.49039185 22.81531982 0.49633789 22.82958984 C-25.34853784 23.18577903 -50.93607297 30.98492684 -70.04296875 49 C-78.29974076 57.66284277 -82.76925626 67.67544772 -83.10546875 79.625 C-82.72501067 93.14711416 -76.93892043 103.77641845 -67.21484375 113.02734375 C-63.01080586 116.57697952 -58.50153655 119.40357196 -53.73046875 122.125 C-52.99828125 122.56457031 -52.26609375 123.00414062 -51.51171875 123.45703125 C-24.73909489 138.30452511 9.38983938 139.00646691 38.26953125 131.125 C54.82522678 126.19308081 71.62215227 117.10826205 80.65234375 101.77734375 C81.58742018 99.92353839 82.4391323 98.02799759 83.26953125 96.125 C81.4369717 94.29244045 78.87565936 95.00090281 76.43678284 94.99266052 C75.59888718 94.99476028 74.76099152 94.99686005 73.89770508 94.99902344 C73.45866348 94.99808937 73.45866348 94.99808937 71.23684692 94.99336243 C69.32268888 94.98934794 67.408526 94.98728263 65.49436378 94.98690033 C61.42639763 94.98349621 57.35859295 94.96214514 53.29068279 94.94166946 C45.70931143 94.9035959 38.1281086 94.87238305 30.54663086 94.87451172 C25.28031422 94.87529885 20.0145827 94.85192989 14.74841881 94.8126297 C12.74103107 94.80216402 10.73357583 94.80064983 8.72617531 94.80828094 C5.91291746 94.81790537 3.1014283 94.7967141 0.28833008 94.76855469 C-0.53944443 94.77875137 -1.36721893 94.78894806 -2.22007751 94.79945374 C-8.06687818 94.69468452 -10.6532865 93.34242618 -14.73046875 89.125 C-16.47498778 85.63596194 -16.30625547 81.93158999 -15.73046875 78.125 C-13.70715412 74.2807022 -10.77207294 71.68715864 -6.73046875 70.125 C-3.91128922 69.87890434 -3.91128922 69.87890434 -0.59283447 69.88449097 C0.66637314 69.88174164 1.92558075 69.87899231 3.22294617 69.87615967 C4.61575413 69.88323749 6.00856113 69.89050711 7.40136719 69.89794922 C8.86991874 69.89851344 10.33847087 69.89819655 11.80702209 69.89706421 C15.79224473 69.89649013 19.7773471 69.90825333 23.76254177 69.92221212 C27.92789031 69.93471031 32.09324156 69.93588926 36.25860596 69.93826294 C44.14563527 69.94448039 52.03260917 69.96089479 59.91961408 69.98096192 C68.89897198 70.00331267 77.87833252 70.01431228 86.85771132 70.02435279 C105.32834938 70.04526078 123.79893586 70.08044192 142.26953125 70.125 C142.44113396 71.55278593 142.60903371 72.98101719 142.77539062 74.40942383 C142.86929077 75.20472 142.96319092 76.00001617 143.05993652 76.81941223 C144.33861044 90.88510456 137.75756036 103.45186507 129.01953125 113.9375 C105.70244511 140.59581453 69.26190095 151.44684219 35.26953125 156.125 C34.04492188 156.3003125 32.8203125 156.475625 31.55859375 156.65625 C-17.38639066 162.59420929 -74.50383673 154.57693639 -114.73046875 124.125 C-126.08551459 115.18358709 -136.39349665 102.81453891 -138.73046875 88.125 C-140.1932177 71.74221175 -135.7339251 59.36817114 -125.734375 46.5703125 C-99.45852826 15.61784716 -54.11284929 4.10419987 -15.359375 0.7265625 C-10.24508304 0.32994394 -5.12592126 0.17175862 0 0 Z " fill="#005BAC" transform="translate(158.73046875,46.875)"/>
<path d="M0 0 C0.78503906 0.79792969 1.57007813 1.59585938 2.37890625 2.41796875 C2.95253906 2.92199219 3.52617188 3.42601562 4.1171875 3.9453125 C13.08213687 11.97594953 20.13951928 25.15944268 20.8125 37.28515625 C20.83602475 38.95426182 20.83685595 40.62382267 20.81640625 42.29296875 C20.80810791 43.17065918 20.79980957 44.04834961 20.79125977 44.95263672 C20.49149982 56.47579314 16.49143514 64.4777183 9.37890625 73.41796875 C8.73179687 74.24167969 8.0846875 75.06539063 7.41796875 75.9140625 C-16.32288279 104.20009566 -59.33317568 115.26339088 -94.62109375 118.41796875 C-136.82649316 121.53148182 -180.11108491 117.36397836 -217.62109375 96.41796875 C-218.55953125 95.90492188 -219.49796875 95.391875 -220.46484375 94.86328125 C-228.65398762 90.1873812 -236.20540184 84.34016266 -242.62109375 77.41796875 C-243.23597656 76.79664063 -243.85085938 76.1753125 -244.484375 75.53515625 C-254.14598179 65.38228132 -259.06083337 53.64669158 -258.98461914 39.6184082 C-258.57216551 23.62437298 -249.25126428 10.69650281 -238.15869141 -0.15625 C-181.4053334 -52.78241874 -55.83325233 -55.00116213 0 0 Z M-188.62109375 8.41796875 C-198.17185426 19.38744866 -203.03407072 29.16693264 -202.8984375 43.6796875 C-202.19245312 53.19556146 -198.36717252 60.94951373 -192.62109375 68.41796875 C-192.18152344 69.02125 -191.74195313 69.62453125 -191.2890625 70.24609375 C-178.50927377 86.59833063 -154.6520912 94.92737876 -134.62109375 97.41796875 C-129.26432129 97.73951011 -123.92257452 97.80867465 -118.55859375 97.79296875 C-117.82809814 97.79209259 -117.09760254 97.79121643 -116.3449707 97.79031372 C-105.04111569 97.74560204 -94.37495915 97.14615157 -83.62109375 93.41796875 C-82.90083008 93.17127441 -82.18056641 92.92458008 -81.43847656 92.67041016 C-71.63601982 89.20057052 -62.91683941 84.76537828 -54.62109375 78.41796875 C-53.79996094 77.79148437 -52.97882813 77.165 -52.1328125 76.51953125 C-41.84600501 68.04804273 -35.72937343 56.5436149 -34.27734375 43.27734375 C-33.8432701 29.1699502 -39.83060009 17.80364438 -49.3125 7.640625 C-61.22385429 -3.82732862 -75.70203927 -10.59754668 -91.62109375 -14.58203125 C-92.30937256 -14.75863281 -92.99765137 -14.93523437 -93.70678711 -15.1171875 C-101.28453956 -16.86764285 -108.8106587 -16.98021324 -116.55859375 -16.95703125 C-116.90027588 -16.95675934 -116.90027588 -16.95675934 -118.62939453 -16.9553833 C-144.15932661 -16.86215937 -169.79796364 -9.7656754 -188.62109375 8.41796875 Z " fill="#005BAC" transform="translate(828.62109375,85.58203125)"/>
<path d="M0 0 C2.86057458 -0.27243567 5.69514573 -0.46855822 8.5625 -0.625 C9.36236328 -0.70878906 10.16222656 -0.79257812 10.98632812 -0.87890625 C13.60404535 -0.98575185 15.51399972 -0.84299976 18 0 C21.03415553 2.85093671 22.88559476 6.44249454 25 10 C26.9307424 12.95426904 28.90923909 15.87627644 30.87890625 18.8046875 C31.97039778 20.44611564 33.06061942 22.08838883 34.1496582 23.73144531 C43.7455975 38.19680803 53.38846103 52.6043488 63.42919922 66.765625 C68.36593512 73.78785176 73.1698909 80.90418361 78 88 C82.08804676 86.15499501 83.87940266 83.87461255 86.5625 80.25 C87.44836978 79.06707208 88.33511923 77.88480252 89.22265625 76.703125 C89.45090088 76.39729492 89.45090088 76.39729492 90.60595703 74.84960938 C92.85713236 71.86276099 95.17957967 68.93315247 97.5 66 C102.21039237 60.02066888 106.87493521 54.00740167 111.49951172 47.96142578 C112.58892948 46.53734796 113.67921261 45.11393201 114.77001953 43.69091797 C122.75114844 33.27589969 130.67259506 22.82482654 138.39550781 12.21630859 C138.92885742 11.48621582 139.46220703 10.75612305 140.01171875 10.00390625 C140.24097046 9.68844849 140.24097046 9.68844849 141.40112305 8.09204102 C141.92875244 7.40166748 142.45638184 6.71129395 143 6 C143.71518799 4.93515381 144.43037598 3.87030762 145.16723633 2.77319336 C148.41221757 -0.40354902 148.41221757 -0.40354902 151.98828125 -0.5859375 C153.43086011 -0.54641479 154.87287302 -0.47534933 156.3125 -0.375 C157.05306641 -0.34792969 157.79363281 -0.32085937 158.55664062 -0.29296875 C160.37235998 -0.22268284 162.18656801 -0.11507089 164 0 C164.32983887 1.125271 164.65967773 2.25054199 164.99951172 3.40991211 C172.1081893 27.62299707 179.43208165 51.75847204 187.0625 75.8125 C187.44128296 77.00723938 187.82006592 78.20197876 188.21032715 79.43292236 C189.71937135 84.19229613 191.22888598 88.95152036 192.73904419 93.71054077 C196.10460221 104.31991295 199.45492639 114.93390576 202.76608276 125.56039429 C203.33339069 127.37813797 203.90278896 129.19523075 204.47439575 131.0116272 C205.25133228 133.48137089 206.02117558 135.95321154 206.7890625 138.42578125 C206.90264351 138.78424133 206.90264351 138.78424133 207.47743225 140.5982666 C208.50528409 143.93616412 209 146.46298455 209 150 C193.16 150 177.32 150 161 150 C159.18716248 145.1657666 157.49195261 140.55057004 156.03881836 135.63500977 C155.6851268 134.44339737 155.33143524 133.25178497 154.96702576 132.02406311 C154.78104073 131.39167473 154.78104073 131.39167473 153.83984375 128.19140625 C153.44552723 126.85671582 153.05103858 125.52207623 152.65638733 124.18748474 C151.83338122 121.40183635 151.01249069 118.61557582 150.19311523 115.82885742 C149.14935906 112.27965945 148.100262 108.73206689 147.04955196 105.18492222 C146.2348926 102.43242901 145.42313538 99.67908627 144.61221504 96.92548943 C144.04111954 94.98813845 143.46760338 93.05150156 142.89402771 91.11488342 C141.03408134 84.77551612 139.3344553 78.47112859 138 72 C137.34 72 136.68 72 136 72 C135.77054688 72.51175781 135.54109375 73.02351563 135.3046875 73.55078125 C133.50006361 76.93850335 131.31253884 80.04062151 129.125 83.1875 C128.88265625 83.538125 128.88265625 83.538125 127.65625 85.3125 C123.63844499 91.11256211 119.56767692 96.87487346 115.48950195 102.63256836 C112.53329085 106.8112476 109.59824928 111.00292482 106.70654297 115.2265625 C105.78277434 116.56740215 104.8482728 117.90091504 103.90283203 119.2265625 C101.684604 122.36373697 99.75606103 125.37570489 98.19140625 128.890625 C96.40785422 132.61572183 94.63786986 135.85894192 91 138 C82.9120699 140.39840753 74.08481258 140.40447945 66 138 C61.11951299 135.13108924 58.78901059 130.3571445 56.29589844 125.44824219 C54.34663469 121.7656467 52.0525882 118.32552605 49.78051758 114.8359375 C47.94673908 112.01421661 46.15091603 109.1714456 44.36328125 106.3203125 C40.40108521 100.02602989 36.28426711 93.84292538 32.12597656 87.67724609 C30.96856829 85.95317957 29.82260659 84.22198227 28.6796875 82.48828125 C27.96039063 81.39902344 27.24109375 80.30976563 26.5 79.1875 C25.8709375 78.23230469 25.241875 77.27710938 24.59375 76.29296875 C23 74 23 74 21 72 C20.76054153 72.75818024 20.52108307 73.51636047 20.27436829 74.29751587 C17.99752622 81.50489288 15.71814471 88.71145978 13.4360323 95.91716957 C12.263366 99.6201321 11.09162333 103.3233812 9.92211914 107.02734375 C8.78970679 110.61370601 7.65470176 114.19923888 6.51802635 117.78425217 C6.08863422 119.14002678 5.66011766 120.49607907 5.23256874 121.85243607 C-3.01760525 148.01760525 -3.01760525 148.01760525 -5 150 C-6.5348297 150.09319449 -8.07392082 150.117458 -9.61157227 150.11352539 C-10.59251358 150.11344986 -11.5734549 150.11337433 -12.5841217 150.11329651 C-13.6507756 150.10813522 -14.7174295 150.10297394 -15.81640625 150.09765625 C-16.35950188 150.09694878 -16.35950188 150.09694878 -19.1078949 150.09336853 C-22.59279075 150.08775048 -26.07762342 150.07519492 -29.5625 150.0625 C-31.91861887 150.05748733 -34.27473874 150.05292402 -36.63085938 150.04882812 C-42.42059464 150.03777519 -48.21029281 150.02101951 -54 150 C-52.36074655 144.41169741 -50.67144012 138.87557509 -48.65234375 133.41015625 C-48.21768799 132.22929443 -47.78303223 131.04843262 -47.33520508 129.83178711 C-46.86931558 128.57535355 -46.40341353 127.31892465 -45.9375 126.0625 C-45.44332298 124.72218999 -44.94943207 123.38177446 -44.45581055 122.04125977 C-42.19037652 115.89462343 -39.91030177 109.75355351 -37.6171875 103.6171875 C-31.62150886 87.55387145 -25.85800369 71.41393723 -20.12792969 55.25439453 C-15.63846443 42.59533229 -11.12149758 29.94669408 -6.5625 17.3125 C-6.28328705 16.53730011 -6.0040741 15.76210022 -5.71640015 14.96340942 C-4.93859296 12.80454028 -4.15908338 10.64629489 -3.37890625 8.48828125 C-2.9413501 7.27696533 -2.50379395 6.06564941 -2.05297852 4.81762695 C-1 2 -1 2 0 0 Z " fill="#005BAC" transform="translate(358,51)"/>
<path d="M0 0 C9.6246769 9.09344474 16.29907155 21.68834114 16.86328125 35.0234375 C17.31930829 55.37845759 12.16699426 74.12194223 -2 89.3125 C-3.76693113 91.13153256 -5.5662765 92.90929177 -7.375 94.6875 C-7.96796875 95.33847656 -8.5609375 95.98945313 -9.171875 96.66015625 C-22.31722373 110.9443347 -41.98859548 119.65893368 -60.375 124.6875 C-60.75712646 124.79336426 -60.75712646 124.79336426 -62.69091797 125.32910156 C-84.62573852 131.11420993 -111.65783462 131.65428978 -133.375 124.6875 C-133.70790039 124.58300537 -133.70790039 124.58300537 -135.39257812 124.05419922 C-151.47226333 118.80826086 -166.13574433 108.73723867 -174.375 93.6875 C-181.10819167 78.07678809 -181.29777869 61.58349812 -175.375 45.6875 C-163.89953102 17.88768258 -140.14482642 -0.18280501 -113.05859375 -11.5234375 C-77.08196425 -25.77504919 -30.66726317 -25.85671209 0 0 Z M-115.375 20.6875 C-116.05820312 21.29207031 -116.74140625 21.89664063 -117.4453125 22.51953125 C-128.23251284 32.5889521 -135.66999159 46.44447107 -136.59765625 61.23828125 C-136.86934336 72.99170197 -135.54931541 81.32692225 -127.71875 90.36328125 C-117.59292299 100.40472637 -104.20428091 103.99966722 -90.25 104.125 C-69.4052983 103.5131203 -51.85021255 95.55897441 -37.375 80.6875 C-32.53784889 74.84295598 -28.2916017 68.7099973 -25.375 61.6875 C-25.08882812 61.0275 -24.80265625 60.3675 -24.5078125 59.6875 C-20.39530731 49.03415321 -20.2360077 37.32199117 -24.375 26.6875 C-29.377807 16.74403268 -36.93552834 10.62072787 -47.234375 6.6875 C-69.94457954 -0.5436099 -97.66659608 4.29478071 -115.375 20.6875 Z " fill="#005BAC" transform="translate(1085.375,74.3125)"/>
<path d="M0 0 C13.53 0 27.06 0 41 0 C42.96195313 4.08761719 44.92390625 8.17523438 46.9453125 12.38671875 C54.73562863 28.55775859 62.74766807 44.61508646 70.79528809 60.65924072 C72.63461189 64.32738682 74.47147633 67.99676416 76.30859375 71.66601562 C79.8700907 78.77850034 83.43414387 85.88969977 87 93 C89.58245506 86.71739348 91.94877765 80.41803728 94.03125 73.953125 C94.30411331 73.11488693 94.57697662 72.27664886 94.85810852 71.41300964 C95.7422363 68.69312704 96.62125618 65.97162634 97.5 63.25 C98.1153351 61.35289944 98.7308156 59.45584604 99.34643555 57.55883789 C104.09577304 42.90005437 108.7554581 28.21313204 113.35546875 13.50683594 C113.59508835 12.74260818 113.83470795 11.97838043 114.08158875 11.19099426 C114.52743169 9.76851943 114.97186671 8.34560225 115.41462708 6.92216492 C116.88791061 2.22417878 116.88791061 2.22417878 118 0 C130.54 0 143.08 0 156 0 C154.67514849 5.96183181 153.2855953 11.60338663 151.3828125 17.36328125 C151.13017639 18.13914078 150.87754028 18.91500031 150.61724854 19.71437073 C149.79072959 22.2484856 148.95800309 24.7805099 148.125 27.3125 C147.53441422 29.11791832 146.94408659 30.92342109 146.35400391 32.72900391 C142.50668776 44.48488768 138.60689736 56.22312016 134.67938232 67.9524231 C129.29721378 84.02782426 124.02320014 100.13861498 118.75 116.25 C118.53220634 116.9154055 118.31441269 117.580811 118.09001923 118.26638031 C115.39178243 126.51040892 112.69510767 134.75494789 110 143 C104.83279599 143.85675385 99.89219378 144.13467581 94.66015625 144.09765625 C93.89319931 144.0962413 93.12624237 144.09482635 92.33604431 144.09336853 C89.9114881 144.08781766 87.48702781 144.07527463 85.0625 144.0625 C83.40820447 144.05747864 81.75390747 144.05291685 80.09960938 144.04882812 C76.06636988 144.03786438 72.03320114 144.02063424 68 144 C57.28971545 122.81312291 47.1167487 101.39919402 37.3371582 79.76977539 C33.8181822 71.98838581 30.27648779 64.22046134 26.625 56.5 C26.26180664 55.72914062 25.89861328 54.95828125 25.52441406 54.1640625 C23.12710959 49.12710959 23.12710959 49.12710959 22 48 C21.72551025 48.92893066 21.45102051 49.85786133 21.16821289 50.81494141 C14.57779036 73.08375434 7.77362822 95.28174212 0.8125 117.4375 C0.43143097 118.65391174 0.05036194 119.87032349 -0.34225464 121.12359619 C-1.42650739 124.58220376 -2.51518205 128.03938424 -3.60546875 131.49609375 C-3.93411926 132.54529495 -4.26276978 133.59449615 -4.60137939 134.67549133 C-4.90332214 135.62876816 -5.20526489 136.58204498 -5.51635742 137.56420898 C-5.77994553 138.40064438 -6.04353363 139.23707977 -6.31510925 140.09886169 C-7 142 -7 142 -8 143 C-10.8843382 143.08865208 -13.74462158 143.11521296 -16.62890625 143.09765625 C-17.06102165 143.09694878 -17.06102165 143.09694878 -19.24778748 143.09336853 C-22.01939292 143.08775239 -24.7909188 143.07519719 -27.5625 143.0625 C-29.4368478 143.05748708 -31.31119685 143.05292381 -33.18554688 143.04882812 C-37.79039544 143.03777772 -42.39518421 143.0205023 -47 143 C-41.02216343 124.46422166 -35.00323991 105.9450425 -28.80142212 87.48291016 C-25.09179889 76.42343092 -21.47985249 65.33326198 -17.90234375 54.23046875 C-17.67845097 53.53568987 -17.45455818 52.84091099 -17.22388077 52.1250782 C-14.9523334 45.07439951 -12.68461128 38.02250151 -10.42275143 30.96870899 C-9.56801475 28.30413069 -8.71184569 25.64001382 -7.85547066 22.97596169 C-7.26309309 21.13106757 -6.6728885 19.28547617 -6.08274841 17.43986511 C-5.72084915 16.31405533 -5.35894989 15.18824554 -4.98608398 14.02832031 C-4.67364243 13.05324524 -4.36120087 12.07817017 -4.03929138 11.07354736 C-2.78071358 7.35149352 -1.37959358 3.67891621 0 0 Z " fill="#005BAC" transform="translate(1143,56)"/>
<path d="M0 0 C11.69215072 -0.09290603 23.38421281 -0.16386947 35.07665825 -0.20724869 C40.50664231 -0.22807436 45.93637279 -0.25630013 51.36621094 -0.30175781 C56.61172077 -0.34539476 61.85698753 -0.36917482 67.10266495 -0.37950897 C69.09843901 -0.38686837 71.09420059 -0.40123927 73.08987045 -0.42292023 C95.13160232 -0.65273855 95.13160232 -0.65273855 103.62109375 6.078125 C104.22050781 6.79484375 104.81992188 7.5115625 105.4375 8.25 C106.05496094 8.95640625 106.67242188 9.6628125 107.30859375 10.390625 C111.3460915 16.61937442 112.53655317 22.5007596 112.4453125 29.7734375 C112.44209488 30.18369675 112.44209488 30.18369675 112.42581177 32.25985718 C112.1860991 41.66117582 110.11070252 50.53078845 107.875 59.625 C107.46161136 61.37941002 107.05025747 63.13430064 106.64086914 64.88964844 C104.85114496 72.51903078 102.9760847 80.12642805 101.06640625 87.7265625 C100.78748535 88.84853027 100.50856445 89.97049805 100.22119141 91.12646484 C99.7216149 93.11761181 99.20837855 95.10541616 98.67724609 97.08837891 C97.03559539 103.54083112 95.80381454 110.37591607 97 117 C99.88346368 120.46919618 101.74267895 121.87788609 106.2578125 122.31640625 C107.53398438 122.39761719 108.81015625 122.47882813 110.125 122.5625 C111.40632813 122.64628906 112.68765625 122.73007813 114.0078125 122.81640625 C114.99523438 122.87699219 115.98265625 122.93757813 117 123 C116.57873592 128.13942175 115.85586875 132.85515792 114.45703125 137.82421875 C114.18479736 138.79834717 113.91256348 139.77247559 113.63208008 140.77612305 C113.52778687 141.14306274 113.52778687 141.14306274 113 143 C105.70646855 143.11629525 98.41313981 143.20491653 91.11886597 143.25906086 C87.73108976 143.28505932 84.34395188 143.32027378 80.95654297 143.37719727 C77.05419258 143.43805961 73.15273953 143.46626048 69.25 143.48828125 C68.04448486 143.51408768 66.83896973 143.5398941 65.59692383 143.56648254 C58.49068123 143.56883548 53.3888106 142.89157723 48 138 C42.36779339 130.7792223 42.31041531 123.87521031 43 115 C43.71223825 109.94217738 44.83060818 104.96991525 46 100 C10.30458971 99.18636996 10.30458971 99.18636996 -1 109 C-9.31384109 117.12171451 -15.33927971 127.44134144 -21.7121582 137.08618164 C-24.89625855 141.89625855 -24.89625855 141.89625855 -26 143 C-27.5122618 143.13289534 -29.03048763 143.19881577 -30.5480957 143.23706055 C-31.51612625 143.26346115 -32.4841568 143.28986176 -33.48152161 143.31706238 C-34.53562729 143.34004898 -35.58973297 143.36303558 -36.67578125 143.38671875 C-37.21413353 143.39948097 -37.21413353 143.39948097 -39.93852234 143.46406555 C-42.22254694 143.51618731 -44.50663469 143.56560024 -46.79077148 143.61254883 C-50.2873052 143.68696379 -53.78317373 143.77765006 -57.27929688 143.86914062 C-59.49476993 143.91766955 -61.7102645 143.96522738 -63.92578125 144.01171875 C-64.44979774 144.0262484 -64.44979774 144.0262484 -67.10163879 144.09977722 C-68.07912582 144.11672134 -69.05661285 144.13366547 -70.0637207 144.15112305 C-70.92230179 144.17031296 -71.78088287 144.18950287 -72.66548157 144.20927429 C-75.20888976 143.9812744 -76.81175642 143.28146472 -79 142 C-77.8827419 140.57803515 -76.76547858 139.1560744 -75.64819336 137.73413086 C-74.66063995 136.47719969 -73.67317486 135.22019913 -72.68579102 133.96313477 C-70.18316431 130.77721861 -67.67942201 127.59220166 -65.171875 124.41015625 C-60.4026472 118.35520713 -55.66245724 112.28049033 -50.97143555 106.16455078 C-47.41631881 101.53260735 -43.83615211 96.92044631 -40.25 92.3125 C-39.66017334 91.55461182 -39.07034668 90.79672363 -38.46264648 90.01586914 C-36.03150336 86.89274231 -33.5997223 83.77011248 -31.16796875 80.64746094 C-24.20195385 71.70127799 -17.24131051 62.75173273 -10.34521484 53.75146484 C-8.80327819 51.74386892 -7.25506707 49.74117753 -5.70703125 47.73828125 C-0.22996409 40.63574193 5.18033284 33.57376268 10 26 C4.06 26 -1.88 26 -8 26 C-6.3382323 19.61531356 -4.49574862 13.34560493 -2.38671875 7.09765625 C-2.15641968 6.41127075 -1.92612061 5.72488525 -1.68884277 5.0177002 C-1.12728073 3.34466776 -0.56383718 1.67226705 0 0 Z M50.94213867 31.79052734 C50.40435791 32.62277832 49.86657715 33.4550293 49.3125 34.3125 C48.10767359 36.06182003 46.90191734 37.81049993 45.6953125 39.55859375 C45.39125488 40.00968506 45.39125488 40.00968506 43.85253906 42.29248047 C40.92018981 46.57816223 37.7967277 50.71695267 34.6875 54.875 C30.61020336 60.39750766 26.56382749 65.94017365 22.625 71.5625 C21.91601562 72.57441406 21.20703125 73.58632812 20.4765625 74.62890625 C19 77 19 77 19 79 C26.02057121 80.09266243 32.90468303 80.11532882 40 80.0625 C41.15628906 80.05798828 42.31257813 80.05347656 43.50390625 80.04882812 C46.33599225 80.03712529 49.16796811 80.02072996 52 80 C54.38898938 73.97135634 56.16549947 67.95209292 57.734375 61.6640625 C57.97665833 60.70349945 58.21894165 59.7429364 58.46856689 58.75326538 C58.97508381 56.73861536 59.47917908 54.72335509 59.98095703 52.70751953 C60.75340197 49.61136406 61.53841452 46.51856962 62.32421875 43.42578125 C62.81586615 41.46373245 63.30677812 39.50149918 63.796875 37.5390625 C64.03323669 36.61203522 64.26959839 35.68500793 64.51312256 34.72988892 C64.72374329 33.87494843 64.93436401 33.02000793 65.15136719 32.13916016 C65.339953 31.38607574 65.52853882 30.63299133 65.72283936 29.85708618 C66 28 66 28 65 26 C57.98866304 24.8181143 54.99883697 25.9846896 50.94213867 31.79052734 Z " fill="#005BAC" transform="translate(1354,56)"/>
<path d="M0 0 C8.99815012 -0.07001319 17.99620413 -0.12306848 26.99456882 -0.15543652 C31.17445675 -0.17098429 35.3541561 -0.19201904 39.53393555 -0.22631836 C43.57994839 -0.25930603 47.62578175 -0.27693448 51.67191887 -0.28463173 C53.2030208 -0.29010553 54.73411474 -0.30079045 56.26513863 -0.31719017 C75.50328552 -0.51475862 95.25846833 2.51512348 110 16 C116.60482806 23.8249971 118.48334584 31.25446582 118.3125 41.3984375 C117.19492892 54.2784442 109.49941611 64.71976029 100 73 C93.47926284 78.21875969 84.66343537 85 76 85 C81.95191489 94.96320267 87.88023769 104.81583173 95 114 C95.24105469 114.31775391 95.24105469 114.31775391 96.4609375 115.92578125 C99.28333088 119.50936557 101.61342535 121.65383535 106.19824219 122.31884766 C106.5857666 122.33455811 106.5857666 122.33455811 108.546875 122.4140625 C109.39121094 122.45273438 110.23554687 122.49140625 111.10546875 122.53125 C111.97816406 122.5621875 112.85085938 122.593125 113.75 122.625 C114.63816406 122.66367188 115.52632812 122.70234375 116.44140625 122.7421875 C118.6273998 122.83620873 120.81339062 122.92186143 123 123 C122.73719208 124.62631722 122.46416769 126.25098316 122.1875 127.875 C122.03667969 128.77992188 121.88585938 129.68484375 121.73046875 130.6171875 C121.09737838 133.54903914 120.32508416 136.34443499 119.4543457 139.21142578 C119.18249954 140.10902618 118.91065338 141.00662659 118.63056946 141.931427 C118.42248154 142.61405609 118.21439362 143.29668518 118 144 C110.74100774 144.10174864 103.48220066 144.17161187 96.22265625 144.21972656 C93.75513842 144.23979295 91.28766785 144.26705244 88.8203125 144.30175781 C85.26550607 144.35049306 81.71133056 144.37301939 78.15625 144.390625 C77.60817688 144.40094757 77.60817688 144.40094757 74.83459473 144.45318604 C67.60638285 144.4552849 61.88077901 143.54976175 56.40930176 138.54498291 C51.64459802 133.52137952 48.20830769 127.2704939 44.54003906 121.43212891 C42.67655434 118.48919378 40.78798696 115.56298554 38.8984375 112.63671875 C37.79951426 110.9320383 36.7009356 109.22713631 35.60247803 107.52215576 C34.86921407 106.38505469 34.13504632 105.2485359 33.39996338 104.11260986 C32.35728066 102.50025829 31.31918068 100.88494598 30.28125 99.26953125 C29.67345703 98.32698486 29.06566406 97.38443848 28.43945312 96.41333008 C27 94 27 94 26 91 C23.03 91 20.06 91 17 91 C16.76490723 92.01908447 16.52981445 93.03816895 16.28759766 94.08813477 C13.98753556 103.99656677 11.55439961 113.86272456 8.96289062 123.69897461 C8.36196884 125.98711905 7.7709204 128.27769475 7.1796875 130.56835938 C6.79486959 132.03401151 6.40947612 133.49951267 6.0234375 134.96484375 C5.84944427 135.64489975 5.67545105 136.32495575 5.4961853 137.02561951 C4.69767038 140.01510637 4.2275211 141.7724789 2 144 C-1.01308951 144.17546482 -3.93310454 144.23127445 -6.9453125 144.1953125 C-7.38781845 144.19389755 -7.38781845 144.19389755 -9.62716675 144.18673706 C-12.45991412 144.1755224 -15.29234784 144.1504157 -18.125 144.125 C-20.04296419 144.11497185 -21.96093333 144.10584572 -23.87890625 144.09765625 C-28.58605876 144.07557889 -33.29297616 144.04104045 -38 144 C-37.42111475 136.55063518 -35.71676004 129.77892723 -33.6328125 122.6171875 C-33.09988151 120.7486189 -32.56696296 118.88004671 -32.03449249 117.01134682 C-31.46364699 115.01214599 -30.88956008 113.01390069 -30.31463623 111.01586914 C-28.26793289 103.8990677 -26.24999224 96.77409482 -24.234375 89.6484375 C-24.02377316 88.90450996 -23.81317131 88.16058243 -23.59618759 87.39411163 C-18.34055379 68.81175995 -13.34599908 50.16014708 -8.375 31.5 C-7.94810279 29.89841635 -7.52120258 28.2968335 -7.09429932 26.69525146 C-4.72351831 17.79842767 -2.35861366 8.90005779 0 0 Z M34 25 C30.94992133 35.52127086 27.9324402 46.05300365 25.0625 56.625 C24.83925049 57.42333252 24.61600098 58.22166504 24.38598633 59.04418945 C22.88459974 64.65379923 22.88459974 64.65379923 24 68 C28.07095734 68.07513835 32.14163647 68.12905913 36.21313477 68.16479492 C37.59308926 68.17971942 38.97299772 68.20006661 40.3527832 68.22631836 C51.21423458 68.42752941 62.29715657 68.31830016 71 61 C76.70337463 55.35704247 79.91962642 50.73162608 80.375 42.5625 C80.24218988 37.63192448 78.94681184 34.95493168 76 31 C69.96936964 26.0414817 63.65273688 24.73642012 55.97265625 24.8046875 C54.68681641 24.81113281 53.40097656 24.81757812 52.07617188 24.82421875 C50.73827846 24.84092399 49.40038783 24.85785381 48.0625 24.875 C46.69727217 24.88504678 45.3320372 24.89416964 43.96679688 24.90234375 C40.64434801 24.92582395 37.32226679 24.95866641 34 25 Z " fill="#005BAC" transform="translate(1605,56)"/>
<path d="M0 0 C15.84 0 31.68 0 48 0 C47.36832846 5.68504386 46.79140849 10.45192094 45.41772461 15.86157227 C45.09746811 17.13641983 44.77721161 18.4112674 44.44725037 19.7247467 C44.27693235 20.39135881 44.10661434 21.05797092 43.93113518 21.7447834 C43.3914424 23.85911398 42.85992157 25.97535563 42.33045959 28.0922699 C40.82526516 34.10433156 39.30566765 40.1127217 37.78100586 46.11987305 C36.84472304 49.81115108 35.91768037 53.50465533 34.99597359 57.19959831 C34.64514452 58.59782094 34.2907422 59.99515241 33.9325695 61.39151192 C29.7015726 77.88831324 29.7015726 77.88831324 31.75 84.375 C33.35108795 86.45641434 34.55107361 87.02042944 37 88 C39.24133258 88.28693388 41.4944319 88.48966591 43.75 88.625 C44.92046875 88.69976562 46.0909375 88.77453125 47.296875 88.8515625 C47.74289062 88.87605469 47.74289062 88.87605469 50 89 C49.57873592 94.13942175 48.85586875 98.85515792 47.45703125 103.82421875 C47.18479736 104.79834717 46.91256348 105.77247559 46.63208008 106.77612305 C46.42349365 107.51000244 46.21490723 108.24388184 46 109 C39.81138297 109.19401736 33.62257306 109.37243986 27.43310547 109.53710938 C25.33240023 109.5951132 23.2318033 109.65720224 21.13134766 109.72363281 C-9.20454719 110.67568657 -9.20454719 110.67568657 -16.59765625 103.828125 C-21.303001 97.69413797 -21.9828378 91.94842642 -21.32971191 84.42340088 C-19.98285728 74.52394449 -16.95596339 64.81787342 -14.375 55.1875 C-13.43809137 51.63069924 -12.50605168 48.07264814 -11.57452393 44.51443481 C-10.95963757 42.16801503 -10.34242791 39.82220278 -9.72283936 37.47702026 C-7.28780266 28.22787482 -5.02270285 18.94384123 -2.84603882 9.63066101 C-2.61663605 8.65466446 -2.38723328 7.67866791 -2.15087891 6.6730957 C-1.95168854 5.81561234 -1.75249817 4.95812897 -1.54727173 4.07466125 C-1 2 -1 2 0 0 Z " fill="#005BAC" transform="translate(1505,90)"/>
</svg>
